<svg xmlns="http://www.w3.org/2000/svg" width="10.24" height="10.24" viewBox="0 0 7.68 7.68">
<g stroke="#0d0002">
  <path transform="matrix(.41881 0 0 .48863 -42.37 -6.85)" fill="none" stroke-width="1.09" stroke-linecap="round" stroke-miterlimit="1.92" d="M.23 0C-.15 0 .01 11.19.2 12.61"/>
  <path transform="matrix(.41881 0 0 .48863 -45.48 -4.51)" fill="none" stroke-width="1.09" stroke-linecap="round" stroke-miterlimit="1.92" d="M.96 1.24c-4.8 0 9.71-.02 14.36-1.24"/>
  <path transform="matrix(.39204 .02614 -.02744 .36013 -36.39 -7.2)" fill="none" stroke-width="1.09" stroke-linecap="round" stroke-miterlimit="1.92" d="M9.6 0C5.7 4.73 3.82 8.26 0 12.37"/>
  <path transform="matrix(.43215 .02881 -.03023 .39669 -35.15 -6.22)" fill="none" stroke-width="1.09" stroke-linecap="round" stroke-miterlimit="1.92" d="M8.59 0C5.3 4.35 3.49 6.7 0 10.9"/>
  <path transform="matrix(.4529 .0302 -.02946 .3866 -37.6 -2.52)" fill="none" stroke-width="1.09" stroke-linecap="round" stroke-miterlimit="1.92" d="M1.54 0C1.54-.2.25 4.2 0 5.19"/>
  <path transform="matrix(.43215 .02881 -.03023 .39669 -37.5 -1.83)" fill="none" stroke-width="1.09" stroke-linecap="round" stroke-miterlimit="1.92" d="M4.28 0C3.53 1.61 1.18 2.33 0 3.5"/>
  <path transform="matrix(.39204 .02614 -.02744 .36013 -36.85 -2.28)" fill="none" stroke-width="1.09" stroke-linecap="round" stroke-miterlimit="1.92" d="M0 0c.12.06 4.14 3.27 2.36 2.04"/>
  <path transform="matrix(.4529 .0302 -.02946 .3866 -37.38 -1.46)" fill="none" stroke-width="1.09" stroke-linecap="round" stroke-miterlimit="1.92" d="M1.33 1.16C-.68-.8 2.28 2.35 0 0"/>
  <path transform="matrix(.39204 .02614 -.02744 .36013 -32.42 -7.05)" fill="none" stroke-width="1.09" stroke-linecap="round" stroke-miterlimit="1.92" d="M0 0c1.47 1.07 1.82 1.1 3.04 2.05"/>
  <path transform="matrix(.39204 .02614 -.02744 .36013 -32.95 -6.45)" fill="none" stroke-width="1.09" stroke-linecap="round" stroke-miterlimit="1.92" d="M.15.04c-.77-.38 1.68 1.81 2.52 1.98"/>
  <path transform="matrix(.63904 0 0 .64703 -29.06 -6.95)" fill="none" stroke-width=".96" stroke-linecap="round" stroke-miterlimit="1.92" d="M0 8.31c.35 1.23 5.16 2.18 7.03-.86C11.17.45.32-3.04.32 3.38"/>
  <path transform="matrix(.63904 0 0 .64703 -29.84 -6.24)" fill="none" stroke-width=".96" stroke-linecap="round" stroke-miterlimit="1.92" d="M0 0c.3 1.6.86 4.37 1.5 3.3"/>
  <path transform="matrix(.63904 0 0 .64703 -28.77 -5.19)" fill="none" stroke-width=".96" stroke-linecap="round" stroke-miterlimit="1.92" d="M2.49 0C1.64.57.6 1.42 0 1.97"/>
  <path transform="matrix(.8135 0 0 .98956 -22.02 -3.9)" fill="none" stroke-width=".72" stroke-linecap="round" stroke-miterlimit="1.92" d="M0 .35C3.06.24 2.84.3 7.07 0"/>
  <path transform="matrix(.8135 0 0 .98956 -22.25 -6.9)" fill="none" stroke-width=".72" stroke-linecap="round" stroke-miterlimit="1.92" d="M0 3.46C1.58 1.45 2.26 1.04 3.73 0"/>
  <path transform="matrix(.8135 0 0 .98956 -22.11 -3.45)" fill="none" stroke-width=".72" stroke-linecap="round" stroke-miterlimit="1.92" d="M0 0c1.26 1 1.63 1.56 3.74 2.73"/>
  <path transform="matrix(1.14404 0 0 1.10776 -11.8 -6.85)" fill="none" stroke-width=".61" stroke-linecap="round" stroke-miterlimit="1.92" d="M0 0c.77.85 1.82 1.74 2.74 2.7"/>
  <path transform="matrix(1.14404 0 0 1.10776 -12.07 -3.93)" fill="none" stroke-width=".61" stroke-linecap="round" stroke-miterlimit="1.92" d="M2.94 0C1.75 1.13 1.1 2.17 0 2.9"/>
  <path transform="matrix(1.14404 0 0 1.10776 -14.48 -3.95)" fill="none" stroke-width=".61" stroke-linecap="round" stroke-miterlimit="1.92" d="M4.8.02C2.44-.08 2.08.23 0 .13"/>
  <path transform="matrix(1.29034 0 0 1.17225 1.08 -5.15)" fill="none" stroke-width=".61" stroke-linecap="round" stroke-miterlimit="1.92" d="M0 0c2.82.45 3.8 1.2 4.42 3.7"/>
  <path transform="matrix(1.37231 .26956 -.29057 1.22089 1.43 -7.44)" fill="none" stroke-width=".61" stroke-linecap="round" stroke-miterlimit="1.92" d="M0 1.58C1.24.63.6.75 2.31 0"/>
  <path transform="matrix(1.37231 .26956 -.29057 1.22089 .85 -4.99)" fill="none" stroke-width=".61" stroke-linecap="round" stroke-miterlimit="1.92" d="M0 0c.68 1.02.86.7 1.96 1.74"/>
  <path transform="matrix(.75478 0 0 .8936 9.57 -4.22)" fill="none" stroke-width=".61" stroke-linecap="round" stroke-miterlimit="1.92" d="M0 2.26c3.23-.1 9.54.57 6.29-2.26"/>
  <path transform="matrix(.75478 0 0 .8936 9.52 -6.66)" fill="none" stroke-width=".61" stroke-linecap="round" stroke-miterlimit="1.92" d="M.06 2.14c-.48-1.03 1.96-3.55 3.67-1.1"/>
  <path transform="matrix(.75478 0 0 .8936 12.56 -5.86)" fill="none" stroke-width=".61" stroke-linecap="round" stroke-miterlimit="1.92" d="M0 .22C1.37-.54 2.43.9 2.2 1.59"/>
  <path transform="matrix(.75478 0 0 .8936 8.16 -4.73)" fill="none" stroke-width=".61" stroke-linecap="round" stroke-miterlimit="1.92" d="M1.56.01c-1.9-.22-2.33 3.09.21 2.82"/>
  <path transform="matrix(.75478 0 0 .8936 9.3 -6.57)" fill="none" stroke-width=".61" stroke-linecap="round" stroke-miterlimit="1.92" d="M7.37 0C5.38 1.53 1.63 4.56 0 6.51"/>
  <path transform="matrix(.49693 0 0 .51876 -21.92 2.15)" fill="none" stroke-width="1.44" stroke-linecap="round" stroke-linejoin="bevel" d="M0 9.58C.9 5.19 5.33.29 11.29 0"/>
  <path transform="matrix(.49693 0 0 .51876 -19.66 .93)" fill="none" stroke-width="1.44" stroke-linecap="round" stroke-linejoin="bevel" d="M.97.1C-2.7-.1 5.11-.2 6.58 2.08"/>
  <path transform="matrix(.49693 0 0 .51876 -18.25 2.15)" fill="none" stroke-width="1.44" stroke-linecap="round" stroke-linejoin="bevel" d="M0 5.32C1.67 2.26 2.83 1.98 3.9 0"/>
  <path transform="matrix(.56056 0 0 .53466 -29.37 2.23)" fill="none" stroke-width="1.44" stroke-linecap="round" stroke-linejoin="bevel" d="M0 0c3.33.84 4.14.92 6.66 2.82 1.77 1.25 3.01 4.81 3.39 6.04"/>
  <path transform="matrix(.56056 0 0 .53466 -29.72 .88)" fill="none" stroke-width="1.44" stroke-linecap="round" stroke-linejoin="bevel" d="M0 2.32C2.29.2 5.6 0 6.89 0"/>
  <path transform="matrix(.56056 0 0 .53466 -29.81 2.23)" fill="none" stroke-width="1.44" stroke-linecap="round" stroke-linejoin="bevel" d="M0 0c1.98 2.43 2.66 3.08 3.8 5.35"/>
  <path transform="matrix(.41006 0 0 .47512 -36.94 1.93)" fill="none" stroke-width="1.44" stroke-linecap="round" stroke-linejoin="bevel" d="M0 .1C3.22.09 9.47.06 11.9 0"/>
  <path transform="matrix(.41006 0 0 .47512 -32.54 .68)" fill="none" stroke-width="1.44" stroke-linecap="round" stroke-linejoin="bevel" d="M1.41 2.6C1.36 2.34.15 0 0 0"/>
  <path transform="matrix(.41006 0 0 .47512 -36.32 .59)" fill="none" stroke-width="1.44" stroke-linecap="round" stroke-linejoin="bevel" d="M8.61.27C5.73-.05 2.46-.13 0 .27"/>
  <path transform="matrix(.41006 0 0 .47512 -37.12 .8)" fill="none" stroke-width="1.44" stroke-linecap="round" stroke-linejoin="bevel" d="M1.65 0C1.07.63.67 1.1 0 2.12"/>
  <path transform="matrix(.41006 0 0 .47512 -36.38 2.18)" fill="none" stroke-width="1.44" stroke-linecap="round" stroke-linejoin="bevel" d="M.01 0C-.1.39.78 7.54 1.14 9.69"/>
  <path transform="matrix(.41006 0 0 .47512 -32.92 2.34)" fill="none" stroke-width="1.44" stroke-linecap="round" stroke-linejoin="bevel" d="M1.06 0C.63 1.86.45 7.42 0 9.3"/>
  <path transform="matrix(.41006 0 0 .47512 -35.8 6.85)" fill="none" stroke-width="1.44" stroke-linecap="round" stroke-linejoin="bevel" d="M0 .1C.99.1 4.98-.03 6.05.02"/>
  <path transform="matrix(.41006 0 0 .47512 -35.1 3.33)" fill="none" stroke-width="1.44" stroke-linecap="round" stroke-linejoin="bevel" d="M0 0c0 .9.47 4.5.47 6.55"/>
  <path transform="matrix(.41006 0 0 .47512 -33.84 3.36)" fill="none" stroke-width="1.44" stroke-linecap="round" stroke-linejoin="bevel" d="M.36 0C.28 1.5.04 5.64 0 6.96"/>
  <path transform="matrix(.50873 0 0 .51308 -14.19 4.62)" fill="none" stroke-width="1.67" stroke-linecap="round" stroke-linejoin="bevel" d="M.06 0c-.4 1.77 1.45 4.13 2.39 4.23"/>
  <path transform="matrix(.50873 0 0 .51308 -12.82 1.48)" fill="none" stroke-width="1.67" stroke-linecap="round" stroke-linejoin="bevel" d="M0 9.95C3.2 5.61 5.2 2.02 7.05 0"/>
  <path transform="matrix(.51992 0 0 .49953 -6.64 -6.46)" fill="none" stroke-width="1.67" stroke-linecap="round" stroke-linejoin="bevel" d="M10.7 0C7.3 2 2.2 7.4 0 10.63"/>
  <path transform="matrix(.51992 0 0 .49953 -6.41 -6.77)" fill="none" stroke-width="1.67" stroke-linecap="round" stroke-linejoin="bevel" d="M0 0c1.6 1.43 7.32 9.28 8.51 11.23"/>
  <path fill="none" stroke-width=".6937559999999999" stroke-linecap="square" stroke-linejoin="bevel" d="M-6.77.97c0 2.17.06 3.06 0 5.26M-2.53.99C-3.16.99-5.15.95-6.6.98M-1.9 1.51c-.22-.18-.01-.2-.29-.4M-.98 2.87c.21.14.03.03.27.2M-1.45 3.58c-.9 1.4-.88 1.26-1.64 2.33M-1.19 3.76c-.4.62-.75 1.07-1.6 2.36"/>
  <path transform="matrix(.45451 -.00565 .00567 .45609 -3.52 6.48)" fill="none" stroke-width="1.4" stroke-linecap="round" stroke-linejoin="bevel" d="M.07 0c-.15.54 0-.06 0 .67"/>
  <path fill="none" stroke-width=".6937559999999999" stroke-linecap="square" stroke-linejoin="bevel" d="M-4.34 6.31c-.52 0-1.87.05-2.4.05M-3.2 2.26l-.04-1.2M-5.04 2.27c0-.3-.05-.86-.07-1.2M-3.26 2.32c-.59.02-1.1-.03-1.72-.03"/>
  <path transform="matrix(.45451 -.00565 .00567 .45609 -3.5 6.72)" fill="none" stroke-width="1.4" stroke-linecap="round" stroke-linejoin="bevel" d="M.71 0C.07.36.62.04 0 .3"/>
  <circle transform="matrix(.49554 0 0 .49554 -4.26 3.67)" r=".36" cx=".36" cy=".36" fill-rule="evenodd" stroke-width="1.4" stroke-linecap="square" stroke-linejoin="bevel"/>
  <path fill="none" stroke-width=".6937559999999999" stroke-linecap="square" stroke-linejoin="bevel" d="M-1.76 2.5v-.6"/>
  <path transform="matrix(.5098 0 0 .49971 1.6 .84)" fill="none" stroke-width="1.4" stroke-linecap="square" stroke-linejoin="bevel" d="M.2 0C.2 4.03.05 10.85 0 11.84"/>
  <path transform="matrix(.5098 0 0 .49971 5.96 2.44)" fill="none" stroke-width="1.4" stroke-linecap="square" stroke-linejoin="bevel" d="M.14 0C.14 4.1.06 6.72 0 8.59"/>
  <path transform="matrix(.5098 0 0 .49971 1.7 6.8)" fill="none" stroke-width="1.4" stroke-linecap="square" stroke-linejoin="bevel" d="M0 .06C2.65.21 5.98 0 7.91 0"/>
  <path transform="matrix(.5098 0 0 .49971 1.77 .76)" fill="none" stroke-width="1.4" stroke-linecap="square" stroke-linejoin="bevel" d="M0 .21C2.05.21 2.58 0 4.6 0"/>
  <path transform="matrix(.5098 0 0 .49971 4.17 .95)" fill="none" stroke-width="1.4" stroke-linecap="square" stroke-linejoin="bevel" d="M0 0c.19 1.5.01 2.25.01 2.75"/>
  <path transform="matrix(.5098 0 0 .49971 4.44 2.4)" fill="none" stroke-width="1.4" stroke-linecap="square" stroke-linejoin="bevel" d="m0 0 2.95.01"/>
  <path transform="matrix(.5098 0 0 .49971 4.55 .89)" fill="none" stroke-width="1.4" stroke-linecap="square" stroke-linejoin="bevel" d="M0 0c.98.87 1.69 1.34 2.53 2.35"/>
</g>
</svg>