<svg xmlns="http://www.w3.org/2000/svg" width="10.24" height="10.24" viewBox="0 0 7.68 7.68">
<g stroke="red">
  <path transform="matrix(.41881 0 0 .48863 3.7 .83)" fill="none" stroke-width="1.09" stroke-linecap="round" stroke-miterlimit="1.92" d="M.23 0C-.15 0 .01 11.19.2 12.61"/>
  <path transform="matrix(.41881 0 0 .48863 .6 3.17)" fill="none" stroke-width="1.09" stroke-linecap="round" stroke-miterlimit="1.92" d="M.96 1.24c-4.8 0 9.71-.02 14.36-1.24"/>
  <path transform="matrix(.39204 .02614 -.02744 .36013 9.7 .48)" fill="none" stroke-width="1.09" stroke-linecap="round" stroke-miterlimit="1.92" d="M9.6 0C5.7 4.73 3.82 8.26 0 12.37"/>
  <path transform="matrix(.43215 .02881 -.03023 .39669 10.93 1.46)" fill="none" stroke-width="1.09" stroke-linecap="round" stroke-miterlimit="1.92" d="M8.59 0C5.3 4.35 3.49 6.7 0 10.9"/>
  <path transform="matrix(.4529 .0302 -.02946 .3866 8.47 5.16)" fill="none" stroke-width="1.09" stroke-linecap="round" stroke-miterlimit="1.92" d="M1.54 0C1.54-.2.25 4.2 0 5.19"/>
  <path transform="matrix(.43215 .02881 -.03023 .39669 8.58 5.85)" fill="none" stroke-width="1.09" stroke-linecap="round" stroke-miterlimit="1.92" d="M4.28 0C3.53 1.61 1.18 2.33 0 3.5"/>
  <path transform="matrix(.39204 .02614 -.02744 .36013 9.23 5.4)" fill="none" stroke-width="1.09" stroke-linecap="round" stroke-miterlimit="1.92" d="M0 0c.12.06 4.14 3.27 2.36 2.04"/>
  <path transform="matrix(.4529 .0302 -.02946 .3866 8.7 6.22)" fill="none" stroke-width="1.09" stroke-linecap="round" stroke-miterlimit="1.92" d="M1.33 1.16C-.68-.8 2.28 2.35 0 0"/>
  <path transform="matrix(.39204 .02614 -.02744 .36013 13.66 .63)" fill="none" stroke-width="1.09" stroke-linecap="round" stroke-miterlimit="1.92" d="M0 0c1.47 1.07 1.82 1.1 3.04 2.05"/>
  <path transform="matrix(.39204 .02614 -.02744 .36013 13.13 1.23)" fill="none" stroke-width="1.09" stroke-linecap="round" stroke-miterlimit="1.92" d="M.15.04c-.77-.38 1.68 1.81 2.52 1.98"/>
  <path transform="matrix(.63904 0 0 .64703 17.02 .73)" fill="none" stroke-width=".96" stroke-linecap="round" stroke-miterlimit="1.92" d="M0 8.31c.35 1.23 5.16 2.18 7.03-.86C11.17.45.32-3.04.32 3.38"/>
  <path transform="matrix(.63904 0 0 .64703 16.24 1.44)" fill="none" stroke-width=".96" stroke-linecap="round" stroke-miterlimit="1.92" d="M0 0c.3 1.6.86 4.37 1.5 3.3"/>
  <path transform="matrix(.63904 0 0 .64703 17.3 2.5)" fill="none" stroke-width=".96" stroke-linecap="round" stroke-miterlimit="1.92" d="M2.49 0C1.64.57.6 1.42 0 1.97"/>
  <path transform="matrix(.8135 0 0 .98956 24.06 3.78)" fill="none" stroke-width=".72" stroke-linecap="round" stroke-miterlimit="1.92" d="M0 .35C3.06.24 2.84.3 7.07 0"/>
  <path transform="matrix(.8135 0 0 .98956 23.83 .77)" fill="none" stroke-width=".72" stroke-linecap="round" stroke-miterlimit="1.92" d="M0 3.46C1.58 1.45 2.26 1.04 3.73 0"/>
  <path transform="matrix(.8135 0 0 .98956 23.97 4.23)" fill="none" stroke-width=".72" stroke-linecap="round" stroke-miterlimit="1.92" d="M0 0c1.26 1 1.63 1.56 3.74 2.73"/>
  <path transform="matrix(1.14404 0 0 1.10776 34.27 .83)" fill="none" stroke-width=".61" stroke-linecap="round" stroke-miterlimit="1.92" d="M0 0c.77.85 1.82 1.74 2.74 2.7"/>
  <path transform="matrix(1.14404 0 0 1.10776 34 3.75)" fill="none" stroke-width=".61" stroke-linecap="round" stroke-miterlimit="1.92" d="M2.94 0C1.75 1.13 1.1 2.17 0 2.9"/>
  <path transform="matrix(1.14404 0 0 1.10776 31.6 3.73)" fill="none" stroke-width=".61" stroke-linecap="round" stroke-miterlimit="1.92" d="M4.8.02C2.44-.08 2.08.23 0 .13"/>
  <path transform="matrix(1.23252 0 0 1.29257 39.87 .67)" fill="none" stroke-width=".61" stroke-linecap="round" stroke-miterlimit="1.92" d="M0 4.82A97.52 97.52 0 0 1 4.32 0"/>
  <path transform="matrix(1.23252 0 0 1.29257 39.21 .85)" fill="none" stroke-width=".61" stroke-linecap="round" stroke-miterlimit="1.92" d="M4.86 4.42C3.87 3.17 1.94.9 0 0"/>
  <path transform="matrix(1.29034 0 0 1.17225 47.16 2.53)" fill="none" stroke-width=".61" stroke-linecap="round" stroke-miterlimit="1.92" d="M0 0c2.82.45 3.8 1.2 4.42 3.7"/>
  <path transform="matrix(1.37231 .26956 -.29057 1.22089 47.5 .24)" fill="none" stroke-width=".61" stroke-linecap="round" stroke-miterlimit="1.92" d="M0 1.58C1.24.63.6.75 2.31 0"/>
  <path transform="matrix(1.37231 .26956 -.29057 1.22089 46.93 2.7)" fill="none" stroke-width=".61" stroke-linecap="round" stroke-miterlimit="1.92" d="M0 0c.68 1.02.86.7 1.96 1.74"/>
  <path transform="matrix(.75478 0 0 .8936 55.65 3.46)" fill="none" stroke-width=".61" stroke-linecap="round" stroke-miterlimit="1.92" d="M0 2.26c3.23-.1 9.54.57 6.29-2.26"/>
  <path transform="matrix(.75478 0 0 .8936 55.6 1.02)" fill="none" stroke-width=".61" stroke-linecap="round" stroke-miterlimit="1.92" d="M.06 2.14c-.48-1.03 1.96-3.55 3.67-1.1"/>
  <path transform="matrix(.75478 0 0 .8936 58.64 1.82)" fill="none" stroke-width=".61" stroke-linecap="round" stroke-miterlimit="1.92" d="M0 .22C1.37-.54 2.43.9 2.2 1.59"/>
  <path transform="matrix(.75478 0 0 .8936 54.24 2.95)" fill="none" stroke-width=".61" stroke-linecap="round" stroke-miterlimit="1.92" d="M1.56.01c-1.9-.22-2.33 3.09.21 2.82"/>
  <path transform="matrix(.75478 0 0 .8936 55.39 1.11)" fill="none" stroke-width=".61" stroke-linecap="round" stroke-miterlimit="1.92" d="M7.37 0C5.38 1.53 1.63 4.56 0 6.51"/>
</g>
</svg>