<?xml version="1.0" standalone="no"?>
<!DOCTYPE svg PUBLIC "-//W3C//DTD SVG 20010904//EN" "http://www.w3.org/TR/2001/REC-SVG-20010904/DTD/svg10.dtd">
<!-- Created using Krita: https://krita.org -->
<svg xmlns="http://www.w3.org/2000/svg" 
    xmlns:xlink="http://www.w3.org/1999/xlink"
    xmlns:krita="http://krita.org/namespaces/svg/krita"
    xmlns:sodipodi="http://sodipodi.sourceforge.net/DTD/sodipodi-0.dtd"
    width="7.68pt"
    height="7.68pt"
    viewBox="0 0 7.68 7.68">
<defs/>
<path id="shape0" transform="matrix(0.41881341079375 0 0 0.488629505470589 -42.3749363719271 -6.85220129769383)" fill="none" stroke="#000000" stroke-width="1.0896" stroke-linecap="round" stroke-linejoin="miter" stroke-miterlimit="1.91999995708466" d="M0.233356 0C-0.149637 0 0.0117109 11.1858 0.201761 12.6112" sodipodi:nodetypes="cc"/><path id="shape1" transform="matrix(0.41881341079375 0 0 0.488629505470589 -45.476000941819 -4.51017769674888)" fill="none" stroke="#000000" stroke-width="1.0896" stroke-linecap="round" stroke-linejoin="miter" stroke-miterlimit="1.91999995708466" d="M0.961732 1.24106C-3.84202 1.24106 10.6739 1.22252 15.3195 0" sodipodi:nodetypes="cc"/><path id="shape2" transform="matrix(0.392043784281695 0.0261372471883674 -0.0274411234306011 0.360129630813226 -36.3855372901881 -7.2)" fill="none" stroke="#000000" stroke-width="1.0896" stroke-linecap="round" stroke-linejoin="miter" stroke-miterlimit="1.91999995708466" d="M9.60816 0C5.70126 4.73407 3.81328 8.25584 0 12.3717" sodipodi:nodetypes="cc"/><path id="shape3" transform="matrix(0.432149554816034 0.0288110670017757 -0.0302265757261953 0.396685127872124 -35.1475808348284 -6.22211028205679)" fill="none" stroke="#000000" stroke-width="1.0896" stroke-linecap="round" stroke-linejoin="miter" stroke-miterlimit="1.91999995708466" d="M8.58901 0C5.30872 4.35059 3.49804 6.6958 0 10.9093" sodipodi:nodetypes="cc"/><path id="shape4" transform="matrix(0.452892922424548 0.0301940108168301 -0.0294586113236149 0.38660657779095 -37.6081689660042 -2.51652743592089)" fill="none" stroke="#000000" stroke-width="1.0896" stroke-linecap="round" stroke-linejoin="miter" stroke-miterlimit="1.91999995708466" d="M1.53661 0.00794425C1.53661 -0.212076 0.251432 4.20307 0 5.18373" sodipodi:nodetypes="cc"/><path id="shape5" transform="matrix(0.432149554816034 0.0288110670017757 -0.0302265757261953 0.396685127872124 -37.4982760466771 -1.82818650123752)" fill="none" stroke="#000000" stroke-width="1.0896" stroke-linecap="round" stroke-linejoin="miter" stroke-miterlimit="1.91999995708466" d="M4.27951 0C3.53465 1.61384 1.1761 2.33309 0 3.50919" sodipodi:nodetypes="cc"/><path id="shape6" transform="matrix(0.392043784281695 0.0261372471883674 -0.0274411234306011 0.360129630813226 -36.8483976831381 -2.27947773911269)" fill="none" stroke="#000000" stroke-width="1.0896" stroke-linecap="round" stroke-linejoin="miter" stroke-miterlimit="1.91999995708466" d="M0 0C0.123505 0.0617527 4.13614 3.27327 2.36441 2.0356" sodipodi:nodetypes="cc"/><path id="shape7" transform="matrix(0.452892922424548 0.0301940108168301 -0.0294586113236149 0.38660657779095 -37.3797071960505 -1.46290414800408)" fill="none" stroke="#000000" stroke-width="1.0896" stroke-linecap="round" stroke-linejoin="miter" stroke-miterlimit="1.91999995708466" d="M1.32687 1.15911C-0.682029 -0.793289 2.27806 2.3466 0 0" sodipodi:nodetypes="cc"/><path id="shape8" transform="matrix(0.392043784281695 0.0261372471883674 -0.0274411234306011 0.360129630813226 -32.4225817399201 -7.0487442982096)" fill="none" stroke="#000000" stroke-width="1.0896" stroke-linecap="round" stroke-linejoin="miter" stroke-miterlimit="1.91999995708466" d="M0 0C1.47421 1.06904 1.82265 1.10862 3.04196 2.04954" sodipodi:nodetypes="cc"/><path id="shape9" transform="matrix(0.392043784281695 0.0261372471883674 -0.0274411234306011 0.360129630813226 -32.9506136503521 -6.44502173416711)" fill="none" stroke="#000000" stroke-width="1.0896" stroke-linecap="round" stroke-linejoin="miter" stroke-miterlimit="1.91999995708466" d="M0.145734 0.044694C-0.619089 -0.337717 1.83493 1.85486 2.67342 2.02255" sodipodi:nodetypes="cc"/><path id="shape10" transform="matrix(0.639044492479149 0 0 0.647025246275272 -29.0595885638121 -6.94897555379037)" fill="none" stroke="#000000" stroke-width="0.96" stroke-linecap="round" stroke-linejoin="miter" stroke-miterlimit="1.91999995708466" d="M0 8.30965C0.345016 9.53635 5.16189 10.4853 7.02933 7.44565C11.1677 0.442954 0.32 -3.03527 0.32 3.38165" sodipodi:nodetypes="ccc"/><path id="shape11" transform="matrix(0.639044492479149 0 0 0.647025246275272 -29.8366666666668 -6.23791243991099)" fill="none" stroke="#000000" stroke-width="0.96" stroke-linecap="round" stroke-linejoin="miter" stroke-miterlimit="1.91999995708466" d="M0 0C0.300557 1.60378 0.864521 4.37081 1.49333 3.30667" sodipodi:nodetypes="cc"/><path id="shape12" transform="matrix(0.639044492479149 0 0 0.647025246275272 -28.7732966311814 -5.18886884061668)" fill="none" stroke="#000000" stroke-width="0.96" stroke-linecap="round" stroke-linejoin="miter" stroke-miterlimit="1.91999995708466" d="M2.48533 0C1.64339 0.565333 0.609793 1.42452 0 1.97333" sodipodi:nodetypes="cc"/><path id="shape13" transform="matrix(0.813499984972115 0 0 0.989556555269978 -22.0150812761741 -3.90368970458109)" fill="none" stroke="#000000" stroke-width="0.72" stroke-linecap="round" stroke-linejoin="miter" stroke-miterlimit="1.91999995708466" d="M0 0.354973C3.05672 0.235934 2.84001 0.289093 7.07447 0" sodipodi:nodetypes="cc"/><path id="shape14" transform="matrix(0.813499984972115 0 0 0.989556555269978 -22.2470000000004 -6.90900000000032)" fill="none" stroke="#000000" stroke-width="0.72" stroke-linecap="round" stroke-linejoin="miter" stroke-miterlimit="1.91999995708466" d="M0 3.456C1.58452 1.44954 2.26284 1.04 3.728 0" sodipodi:nodetypes="cc"/><path id="shape15" transform="matrix(0.813499984972115 0 0 0.989556555269978 -22.1103320025251 -3.44951028277648)" fill="none" stroke="#000000" stroke-width="0.72" stroke-linecap="round" stroke-linejoin="miter" stroke-miterlimit="1.91999995708466" d="M0 0C1.25567 1.00763 1.62514 1.56472 3.744 2.728" sodipodi:nodetypes="cc"/><path id="shape16" transform="matrix(1.14403886554623 0 0 1.10776277724201 -11.8061918767508 -6.84666666666643)" fill="none" stroke="#000000" stroke-width="0.6096" stroke-linecap="round" stroke-linejoin="miter" stroke-miterlimit="1.91999995708466" d="M0 0C0.772867 0.853333 1.81941 1.74407 2.74133 2.70933" sodipodi:nodetypes="cc"/><path id="shape17" transform="matrix(1.14403886554623 0 0 1.10776277724201 -12.0746596638656 -3.93398907103815)" fill="none" stroke="#000000" stroke-width="0.6096" stroke-linecap="round" stroke-linejoin="miter" stroke-miterlimit="1.91999995708466" d="M2.93867 0C1.75479 1.13416 1.10539 2.17183 0 2.90133" sodipodi:nodetypes="cc"/><path id="shape18" transform="matrix(1.14403886554623 0 0 1.10776277724201 -14.4786666666667 -3.95199211816841)" fill="none" stroke="#000000" stroke-width="0.6096" stroke-linecap="round" stroke-linejoin="miter" stroke-miterlimit="1.91999995708466" d="M4.8 0.0215852C2.44285 -0.0832705 2.07629 0.233293 0 0.133585" sodipodi:nodetypes="cc"/><path id="shape21" transform="matrix(1.23252467105275 0 0 1.29256644518279 -0.899580592105295 -7.00500000000022)" fill="none" stroke="#000000" stroke-width="0.6096" stroke-linecap="round" stroke-linejoin="miter" stroke-miterlimit="1.91999995708466" d="M0 0" sodipodi:nodetypes="c"/><path id="shape22" transform="matrix(1.29034276461017 0 0 1.17224703626684 1.0784054374426 -5.14887703023562)" fill="none" stroke="#000000" stroke-width="0.6096" stroke-linecap="round" stroke-linejoin="miter" stroke-miterlimit="1.91999995708466" d="M0 0C2.81941 0.451136 3.79975 1.20266 4.41867 3.70133" sodipodi:nodetypes="cc"/><path id="shape23" transform="matrix(1.37231169919822 0.269558063789789 -0.290567031551028 1.22088534080903 1.4290160140194 -7.44093767585674)" fill="none" stroke="#000000" stroke-width="0.6096" stroke-linecap="round" stroke-linejoin="miter" stroke-miterlimit="1.91999995708466" d="M0 1.58435C1.23582 0.628767 0.597719 0.746983 2.31096 0" sodipodi:nodetypes="cc"/><path id="shape24" transform="matrix(1.37231169919822 0.269558063789789 -0.290567031551028 1.22088534080903 0.851925398953298 -4.98650991809139)" fill="none" stroke="#000000" stroke-width="0.6096" stroke-linecap="round" stroke-linejoin="miter" stroke-miterlimit="1.91999995708466" d="M0 0C0.681322 1.01918 0.856937 0.692813 1.96337 1.7438" sodipodi:nodetypes="cc"/><path id="shape25" transform="matrix(0.754783779290918 0 0 0.893604953879548 9.5713022707572 -4.22433606068364)" fill="none" stroke="#000000" stroke-width="0.6096" stroke-linecap="round" stroke-linejoin="miter" stroke-miterlimit="1.91999995708466" d="M0 2.264C3.22886 2.16727 9.53767 2.8267 6.288 0" sodipodi:nodetypes="cc"/><path id="shape26" transform="matrix(0.754783779290918 0 0 0.893604953879548 9.52494861754258 -6.66001071259109)" fill="none" stroke="#000000" stroke-width="0.6096" stroke-linecap="round" stroke-linejoin="miter" stroke-miterlimit="1.91999995708466" d="M0.0614133 2.14166C-0.419073 1.11255 2.02481 -1.41373 3.73341 1.03766" sodipodi:nodetypes="cc"/><path id="shape27" transform="matrix(0.754783779290918 0 0 0.893604953879548 12.5602460367492 -5.86104508914927)" fill="none" stroke="#000000" stroke-width="0.6096" stroke-linecap="round" stroke-linejoin="miter" stroke-miterlimit="1.91999995708466" d="M0 0.215581C1.36805 -0.544905 2.42638 0.897256 2.208 1.59158" sodipodi:nodetypes="cc"/><path id="shape28" transform="matrix(0.754783779290918 0 0 0.893604953879548 8.16249409769176 -4.73399236046665)" fill="none" stroke="#000000" stroke-width="0.6096" stroke-linecap="round" stroke-linejoin="miter" stroke-miterlimit="1.91999995708466" d="M1.56251 0.0103376C-0.333804 -0.207617 -0.774172 3.0961 1.77051 2.82634" sodipodi:nodetypes="cc"/><path id="shape29" transform="matrix(0.754783779290918 0 0 0.893604953879548 9.3056183804467 -6.56915545966358)" fill="none" stroke="#000000" stroke-width="0.6096" stroke-linecap="round" stroke-linejoin="miter" stroke-miterlimit="1.91999995708466" d="M7.368 0C5.38333 1.52865 1.63416 4.55703 0 6.512" sodipodi:nodetypes="cc"/><path id="shape30" transform="matrix(0.496928181161217 0 0 0.518760639710523 -21.9150000000002 2.15396490051483)" fill="none" stroke="#000000" stroke-width="1.44" stroke-linecap="round" stroke-linejoin="bevel" d="M0 9.57867C0.903311 5.19355 5.3272 0.291631 11.2853 0" sodipodi:nodetypes="cc"/><path id="shape31" transform="matrix(0.496928181161217 0 0 0.518760639710523 -19.662460153363 0.931000423162986)" fill="none" stroke="#000000" stroke-width="1.44" stroke-linecap="round" stroke-linejoin="bevel" d="M0.971072 0.106808C-2.69929 -0.111564 5.11253 -0.21311 6.58174 2.06947" sodipodi:nodetypes="cc"/><path id="shape32" transform="matrix(0.496928181161217 0 0 0.518760639710523 -18.2536332702031 2.15396490051483)" fill="none" stroke="#000000" stroke-width="1.44" stroke-linecap="round" stroke-linejoin="bevel" d="M0 5.32267C1.66916 2.25604 2.82859 1.98165 3.90667 0" sodipodi:nodetypes="cc"/><path id="shape33" transform="matrix(0.5605613151024 0 0 0.534660436114004 -29.3715199289598 2.23319580569648)" fill="none" stroke="#000000" stroke-width="1.44" stroke-linecap="round" stroke-linejoin="bevel" d="M0 0C3.328 0.844257 4.14399 0.915304 6.66036 2.82313C8.43119 4.06962 9.672 7.63443 10.048 8.86133" sodipodi:nodetypes="ccc"/><path id="shape34" transform="matrix(0.5605613151024 0 0 0.534660436114004 -29.7168256990629 0.88299999999994)" fill="none" stroke="#000000" stroke-width="1.44" stroke-linecap="round" stroke-linejoin="bevel" d="M0 2.31733C2.28842 0.201922 5.60124 0 6.888 0" sodipodi:nodetypes="cc"/><path id="shape35" transform="matrix(0.5605613151024 0 0 0.534660436114004 -29.8110000000001 2.23319580569648)" fill="none" stroke="#000000" stroke-width="1.44" stroke-linecap="round" stroke-linejoin="bevel" d="M0 0C1.97743 2.42514 2.66133 3.07859 3.80533 5.34667" sodipodi:nodetypes="cc"/><path id="shape36" transform="matrix(0.410055643879173 0 0 0.475121784051166 -36.9395226285111 1.92502467741606)" fill="none" stroke="#000000" stroke-width="1.44" stroke-linecap="round" stroke-linejoin="bevel" d="M0 0.108C3.21863 0.076 9.47379 0.0542312 11.892 0" sodipodi:nodetypes="cc"/><path id="shape37" transform="matrix(0.410055643879173 0 0 0.475121784051166 -32.5368317439889 0.684320109092461)" fill="none" stroke="#000000" stroke-width="1.44" stroke-linecap="round" stroke-linejoin="bevel" d="M1.41119 2.59134C1.36319 2.35137 0.145917 0 0 0" sodipodi:nodetypes="cc"/><path id="shape38" transform="matrix(0.410055643879173 0 0 0.475121784051166 -36.3195184949658 0.589506404238228)" fill="none" stroke="#000000" stroke-width="1.44" stroke-linecap="round" stroke-linejoin="bevel" d="M8.612 0.265493C5.72828 -0.0490943 2.4568 -0.12731 0 0.269493" sodipodi:nodetypes="cc"/><path id="shape39" transform="matrix(0.410055643879173 0 0 0.475121784051166 -37.1166666666669 0.80556666926457)" fill="none" stroke="#000000" stroke-width="1.44" stroke-linecap="round" stroke-linejoin="bevel" d="M1.64722 0C1.07125 0.634985 0.669699 1.09263 0 2.12415" sodipodi:nodetypes="cc"/><path id="shape40" transform="matrix(0.410055643879173 0 0 0.475121784051166 -36.3846700188125 2.17778946653129)" fill="none" stroke="#000000" stroke-width="1.44" stroke-linecap="round" stroke-linejoin="bevel" d="M0.0108844 0C-0.107953 0.38622 0.777695 7.53694 1.13888 9.688" sodipodi:nodetypes="cc"/><path id="shape41" transform="matrix(0.410055643879173 0 0 0.475121784051166 -32.9209773184952 2.3393308731087)" fill="none" stroke="#000000" stroke-width="1.44" stroke-linecap="round" stroke-linejoin="bevel" d="M1.064 0C0.628 1.85871 0.448 7.41729 0 9.296" sodipodi:nodetypes="cc"/><path id="shape42" transform="matrix(0.410055643879173 0 0 0.475121784051166 -35.8061288288291 6.84914552153186)" fill="none" stroke="#000000" stroke-width="1.44" stroke-linecap="round" stroke-linejoin="bevel" d="M0 0.108087C0.987361 0.108087 4.97525 -0.0430024 6.048 0.0120869" sodipodi:nodetypes="cc"/><path id="shape43" transform="matrix(0.410055643879173 0 0 0.475121784051166 -35.1008510020036 3.3313851582075)" fill="none" stroke="#000000" stroke-width="1.44" stroke-linecap="round" stroke-linejoin="bevel" d="M4.36052e-05 0C-0.00522137 0.897624 0.468044 4.50316 0.468044 6.552" sodipodi:nodetypes="cc"/><path id="shape44" transform="matrix(0.410055643879173 0 0 0.475121784051166 -33.8427824059356 3.3579919781144)" fill="none" stroke="#000000" stroke-width="1.44" stroke-linecap="round" stroke-linejoin="bevel" d="M0.364 0C0.283588 1.50821 0.0383424 5.64151 0 6.96" sodipodi:nodetypes="cc"/><path id="shape19" transform="matrix(0.508730863749982 0 0 0.513084112149533 -14.1853728020821 4.6182367601246)" fill="none" stroke="#000000" stroke-width="1.6728" stroke-linecap="round" stroke-linejoin="bevel" d="M0.0552922 0C-0.342892 1.76897 1.50828 4.12568 2.44698 4.23238" sodipodi:nodetypes="cc"/><path id="shape20" transform="matrix(0.508730863749982 0 0 0.513084112149533 -12.8166374146598 1.47684382284383)" fill="none" stroke="#000000" stroke-width="1.6728" stroke-linecap="round" stroke-linejoin="bevel" d="M0 9.94996C3.20938 5.61133 5.19904 2.01726 7.04788 0" sodipodi:nodetypes="cc"/><path id="shape45" transform="matrix(0.519920318725099 0 0 0.499526066350711 -6.6426666666667 -6.45962654028436)" fill="none" stroke="#000000" stroke-width="1.6728" stroke-linecap="round" stroke-linejoin="bevel" d="M10.7093 0C7.28557 2.00703 2.20441 7.39104 0 10.6347" sodipodi:nodetypes="cc"/><path id="shape46" transform="matrix(0.519920318725099 0 0 0.499526066350711 -6.4097423638778 -6.76866666666667)" fill="none" stroke="#000000" stroke-width="1.6728" stroke-linecap="round" stroke-linejoin="bevel" d="M0 0C1.60941 1.43327 7.31663 9.27577 8.512 11.2267" sodipodi:nodetypes="cc"/><path id="shape47" transform="matrix(0.495543479672314 0 0 0.495543479672314 -6.7763333333335 0.9686666666665)" fill="none" stroke="#000000" stroke-width="1.3992" stroke-linecap="square" stroke-linejoin="bevel" d="M0.004 0C0.004 4.37695 0.132 6.17078 0 10.612" sodipodi:nodetypes="cc"/><path id="shape48" transform="matrix(0.495543479672314 0 0 0.495543479672314 -6.588026811058 0.969287838274868)" fill="none" stroke="#000000" stroke-width="1.3992" stroke-linecap="square" stroke-linejoin="bevel" d="M8.18 0.0427465C6.92498 0.0427465 2.912 -0.0304769 0 0.0147465" sodipodi:nodetypes="cc"/><path id="shape49" transform="matrix(0.495543479672314 0 0 0.495543479672314 -2.1862792622888 1.11600826128906)" fill="none" stroke="#000000" stroke-width="1.3992" stroke-linecap="square" stroke-linejoin="bevel" d="M0.561333 0.804C0.127211 0.436666 0.550241 0.39887 0 0" sodipodi:nodetypes="cc"/><path id="shape50" transform="matrix(0.495505245783954 -0.0061556190863152 0.0061556190863152 0.495505245783954 -0.982062072815296 2.8745442048714)" fill="none" stroke="#000000" stroke-width="1.3992" stroke-linecap="square" stroke-linejoin="bevel" d="M0 0C0.432822 0.272576 0.0576793 0.0575998 0.542981 0.399954" sodipodi:nodetypes="cc"/><path id="shape51" transform="matrix(0.495505245783954 -0.0061556190863152 0.0061556190863152 0.495505245783954 -3.1194698723778 3.5990311101948)" fill="none" stroke="#000000" stroke-width="1.3992" stroke-linecap="square" stroke-linejoin="bevel" d="M3.36615 0C1.50809 2.78812 1.56841 2.51492 0 4.65772" sodipodi:nodetypes="cc"/><path id="shape52" transform="matrix(0.495505245783954 -0.0061556190863152 0.0061556190863152 0.495505245783954 -2.8261893122762 3.7757418678475)" fill="none" stroke="#000000" stroke-width="1.3992" stroke-linecap="square" stroke-linejoin="bevel" d="M3.30282 0C2.47912 1.24273 1.76822 2.14925 0 4.73753" sodipodi:nodetypes="cc"/><path id="shape53" transform="matrix(0.454514544186331 -0.00564639512297184 0.00566596756808863 0.456090055778548 -3.51957171455594 6.47634472379946)" fill="none" stroke="#000000" stroke-width="1.3992" stroke-linecap="round" stroke-linejoin="bevel" d="M0.0699616 0C-0.0840315 0.535549 0.063915 -0.055358 0.0660019 0.667021" sodipodi:nodetypes="cc"/><path id="shape54" transform="matrix(0.495543479672314 0 0 0.495543479672314 -6.7307433332036 6.3132682760923)" fill="none" stroke="#000000" stroke-width="1.3992" stroke-linecap="square" stroke-linejoin="bevel" d="M4.81467 0C3.78166 0 1.04128 0.0906667 0 0.0906667" sodipodi:nodetypes="cc"/><path id="shape55" transform="matrix(0.495543479672314 0 0 0.495543479672314 -3.2440994102293 1.05786449300751)" fill="none" stroke="#000000" stroke-width="1.3992" stroke-linecap="square" stroke-linejoin="bevel" d="M0.0853333 2.42667C0.0853333 2.16694 0.0290875 0.559029 0 0" sodipodi:nodetypes="cc"/><path id="shape56" transform="matrix(0.495543479672314 0 0 0.495543479672314 -5.1066821691576 1.07173971043834)" fill="none" stroke="#000000" stroke-width="1.3992" stroke-linecap="square" stroke-linejoin="bevel" d="M0.129333 2.40933C0.129333 1.82174 0.0245181 0.682187 0 0" sodipodi:nodetypes="cc"/><path id="shape57" transform="matrix(0.495543479672314 0 0 0.495543479672314 -4.980483763001 2.29011594579265)" fill="none" stroke="#000000" stroke-width="1.3992" stroke-linecap="square" stroke-linejoin="bevel" d="M3.48 0.0506667C2.28304 0.093008 1.26313 0 0 0" sodipodi:nodetypes="cc"/><path id="shape58" transform="matrix(0.454514544186331 -0.00564639512297184 0.00566596756808863 0.456090055778548 -3.4979120097765 6.7164600991362)" fill="none" stroke="#000000" stroke-width="1.3992" stroke-linecap="round" stroke-linejoin="bevel" d="M0.711014 0C0.0731728 0.3551 0.623173 0.0434646 0 0.303025" sodipodi:nodetypes="cc"/><circle id="shape59" transform="matrix(0.495543479672314 0 0 0.495543479672314 -4.2627716232756 3.6746644279972)" r="0.360000000000001" cx="0.360000000000001" cy="0.360000000000001" fill="#000000" fill-rule="evenodd" stroke="#000000" stroke-width="1.3992" stroke-linecap="square" stroke-linejoin="bevel"/><path id="shape60" transform="matrix(0.495543479672314 0 0 0.495543479672314 -1.7625895871688 1.89929732149119)" fill="none" stroke="#000000" stroke-width="1.3992" stroke-linecap="square" stroke-linejoin="bevel" d="M0 1.216C0 0.513882 0 0.717401 0 0" sodipodi:nodetypes="cc"/><path id="shape61" transform="matrix(0.50980392156863 0 0 0.499713175616287 1.5946666666666 0.838623834225361)" fill="none" stroke="#000000" stroke-width="1.3992" stroke-linecap="square" stroke-linejoin="bevel" d="M0.202667 0C0.202667 4.03015 0.0533333 10.8462 0 11.84" sodipodi:nodetypes="cc"/><path id="shape62" transform="matrix(0.50980392156863 0 0 0.499713175616287 5.9613071895425 2.4430362700707)" fill="none" stroke="#000000" stroke-width="1.3992" stroke-linecap="square" stroke-linejoin="bevel" d="M0.138667 0C0.138667 4.10407 0.064 6.71741 0 8.58667" sodipodi:nodetypes="cc"/><path id="shape63" transform="matrix(0.50980392156863 0 0 0.499713175616287 1.6979869281046 6.8085305722546)" fill="none" stroke="#000000" stroke-width="1.3992" stroke-linecap="square" stroke-linejoin="bevel" d="M0 0.064C2.64727 0.205388 5.97991 0 7.91467 0" sodipodi:nodetypes="cc"/><path id="shape64" transform="matrix(0.50980392156863 0 0 0.499713175616287 1.7686797385621 0.764000000000001)" fill="none" stroke="#000000" stroke-width="1.3992" stroke-linecap="square" stroke-linejoin="bevel" d="M0 0.213333C2.05352 0.213333 2.57848 0 4.608 0" sodipodi:nodetypes="cc"/><path id="shape65" transform="matrix(0.50980392156863 0 0 0.499713175616287 4.1667973856209 0.950559585563409)" fill="none" stroke="#000000" stroke-width="1.3992" stroke-linecap="square" stroke-linejoin="bevel" d="M0 0C0.188076 1.49929 0.0106667 2.25458 0.0106667 2.752" sodipodi:nodetypes="cc"/><path id="shape66" transform="matrix(0.50980392156863 0 0 0.499713175616287 4.4386928104575 2.3950638052116)" fill="none" stroke="#000000" stroke-width="1.3992" stroke-linecap="square" stroke-linejoin="bevel" d="M0 0C0.910439 0 2.03154 0.0106667 2.95467 0.0106667" sodipodi:nodetypes="cc"/><path id="shape67" transform="matrix(0.50980392156863 0 0 0.499713175616287 4.5474509803922 0.88659629908453)" fill="none" stroke="#000000" stroke-width="1.3992" stroke-linecap="square" stroke-linejoin="bevel" d="M0 0C0.981277 0.874137 1.68774 1.33835 2.528 2.34667" sodipodi:nodetypes="cc"/>
</svg>
