<svg xmlns="http://www.w3.org/2000/svg" width="10.24" height="10.24" viewBox="0 0 7.68 7.68">
<g stroke="#0d0002">
  <path transform="matrix(.41881 0 0 .48863 -27.01 -6.85)" fill="none" stroke-width="1.09" stroke-linecap="round" stroke-miterlimit="1.92" d="M.23 0C-.15 0 .01 11.19.2 12.61"/>
  <path transform="matrix(.41881 0 0 .48863 -30.12 -4.51)" fill="none" stroke-width="1.09" stroke-linecap="round" stroke-miterlimit="1.92" d="M.96 1.24c-4.8 0 9.71-.02 14.36-1.24"/>
  <path transform="matrix(.39204 .02614 -.02744 .36013 -21.03 -7.2)" fill="none" stroke-width="1.09" stroke-linecap="round" stroke-miterlimit="1.92" d="M9.6 0C5.7 4.73 3.82 8.26 0 12.37"/>
  <path transform="matrix(.43215 .02881 -.03023 .39669 -19.79 -6.22)" fill="none" stroke-width="1.09" stroke-linecap="round" stroke-miterlimit="1.92" d="M8.59 0C5.3 4.35 3.49 6.7 0 10.9"/>
  <path transform="matrix(.4529 .0302 -.02946 .3866 -22.25 -2.52)" fill="none" stroke-width="1.09" stroke-linecap="round" stroke-miterlimit="1.92" d="M1.54 0C1.54-.2.25 4.2 0 5.19"/>
  <path transform="matrix(.43215 .02881 -.03023 .39669 -22.14 -1.83)" fill="none" stroke-width="1.09" stroke-linecap="round" stroke-miterlimit="1.92" d="M4.28 0C3.53 1.61 1.18 2.33 0 3.5"/>
  <path transform="matrix(.39204 .02614 -.02744 .36013 -21.49 -2.28)" fill="none" stroke-width="1.09" stroke-linecap="round" stroke-miterlimit="1.92" d="M0 0c.12.06 4.14 3.27 2.36 2.04"/>
  <path transform="matrix(.4529 .0302 -.02946 .3866 -22.02 -1.46)" fill="none" stroke-width="1.09" stroke-linecap="round" stroke-miterlimit="1.92" d="M1.33 1.16C-.68-.8 2.28 2.35 0 0"/>
  <path transform="matrix(.39204 .02614 -.02744 .36013 -17.06 -7.05)" fill="none" stroke-width="1.09" stroke-linecap="round" stroke-miterlimit="1.92" d="M0 0c1.47 1.07 1.82 1.1 3.04 2.05"/>
  <path transform="matrix(.39204 .02614 -.02744 .36013 -17.6 -6.45)" fill="none" stroke-width="1.09" stroke-linecap="round" stroke-miterlimit="1.92" d="M.15.04c-.77-.38 1.68 1.81 2.52 1.98"/>
  <path transform="matrix(.63904 0 0 .64703 -13.7 -6.95)" fill="none" stroke-width=".96" stroke-linecap="round" stroke-miterlimit="1.92" d="M0 8.31c.35 1.23 5.16 2.18 7.03-.86C11.17.45.32-3.04.32 3.38"/>
  <path transform="matrix(.63904 0 0 .64703 -14.48 -6.24)" fill="none" stroke-width=".96" stroke-linecap="round" stroke-miterlimit="1.92" d="M0 0c.3 1.6.86 4.37 1.5 3.3"/>
  <path transform="matrix(.63904 0 0 .64703 -13.41 -5.19)" fill="none" stroke-width=".96" stroke-linecap="round" stroke-miterlimit="1.92" d="M2.49 0C1.64.57.6 1.42 0 1.97"/>
  <path transform="matrix(.8135 0 0 .98956 -6.66 -3.9)" fill="none" stroke-width=".72" stroke-linecap="round" stroke-miterlimit="1.92" d="M0 .35C3.06.24 2.84.3 7.07 0"/>
  <path transform="matrix(.8135 0 0 .98956 -6.89 -6.9)" fill="none" stroke-width=".72" stroke-linecap="round" stroke-miterlimit="1.92" d="M0 3.46C1.58 1.45 2.26 1.04 3.73 0"/>
  <path transform="matrix(.8135 0 0 .98956 -6.75 -3.45)" fill="none" stroke-width=".72" stroke-linecap="round" stroke-miterlimit="1.92" d="M0 0c1.26 1 1.63 1.56 3.74 2.73"/>
  <path transform="matrix(1.14404 0 0 1.10776 3.55 -6.85)" fill="none" stroke-width=".61" stroke-linecap="round" stroke-miterlimit="1.92" d="M0 0c.77.85 1.82 1.74 2.74 2.7"/>
  <path transform="matrix(1.14404 0 0 1.10776 3.29 -3.93)" fill="none" stroke-width=".61" stroke-linecap="round" stroke-miterlimit="1.92" d="M2.94 0C1.75 1.13 1.1 2.17 0 2.9"/>
  <path transform="matrix(1.14404 0 0 1.10776 .88 -3.95)" fill="none" stroke-width=".61" stroke-linecap="round" stroke-miterlimit="1.92" d="M4.8.02C2.44-.08 2.08.23 0 .13"/>
  <path transform="matrix(1.29034 0 0 1.17225 16.44 -5.15)" fill="none" stroke-width=".61" stroke-linecap="round" stroke-miterlimit="1.92" d="M0 0c2.82.45 3.8 1.2 4.42 3.7"/>
  <path transform="matrix(1.37231 .26956 -.29057 1.22089 16.79 -7.44)" fill="none" stroke-width=".61" stroke-linecap="round" stroke-miterlimit="1.92" d="M0 1.58C1.24.63.6.75 2.31 0"/>
  <path transform="matrix(1.37231 .26956 -.29057 1.22089 16.21 -4.99)" fill="none" stroke-width=".61" stroke-linecap="round" stroke-miterlimit="1.92" d="M0 0c.68 1.02.86.7 1.96 1.74"/>
  <path transform="matrix(.75478 0 0 .8936 24.93 -4.22)" fill="none" stroke-width=".61" stroke-linecap="round" stroke-miterlimit="1.92" d="M0 2.26c3.23-.1 9.54.57 6.29-2.26"/>
  <path transform="matrix(.75478 0 0 .8936 24.88 -6.66)" fill="none" stroke-width=".61" stroke-linecap="round" stroke-miterlimit="1.92" d="M.06 2.14c-.48-1.03 1.96-3.55 3.67-1.1"/>
  <path transform="matrix(.75478 0 0 .8936 27.92 -5.86)" fill="none" stroke-width=".61" stroke-linecap="round" stroke-miterlimit="1.92" d="M0 .22C1.37-.54 2.43.9 2.2 1.59"/>
  <path transform="matrix(.75478 0 0 .8936 23.52 -4.73)" fill="none" stroke-width=".61" stroke-linecap="round" stroke-miterlimit="1.92" d="M1.56.01c-1.9-.22-2.33 3.09.21 2.82"/>
  <path transform="matrix(.75478 0 0 .8936 24.67 -6.57)" fill="none" stroke-width=".61" stroke-linecap="round" stroke-miterlimit="1.92" d="M7.37 0C5.38 1.53 1.63 4.56 0 6.51"/>
  <path transform="matrix(.49693 0 0 .51876 -6.56 2.15)" fill="none" stroke-width="1.44" stroke-linecap="round" stroke-linejoin="bevel" d="M0 9.58C.9 5.19 5.33.29 11.29 0"/>
  <path transform="matrix(.49693 0 0 .51876 -4.3 .93)" fill="none" stroke-width="1.44" stroke-linecap="round" stroke-linejoin="bevel" d="M.97.1C-2.7-.1 5.11-.2 6.58 2.08"/>
  <path transform="matrix(.49693 0 0 .51876 -2.9 2.15)" fill="none" stroke-width="1.44" stroke-linecap="round" stroke-linejoin="bevel" d="M0 5.32C1.67 2.26 2.83 1.98 3.9 0"/>
  <path transform="matrix(.56056 0 0 .53466 -14.01 2.23)" fill="none" stroke-width="1.44" stroke-linecap="round" stroke-linejoin="bevel" d="M0 0c3.33.84 4.14.92 6.66 2.82 1.77 1.25 3.01 4.81 3.39 6.04"/>
  <path transform="matrix(.56056 0 0 .53466 -14.36 .88)" fill="none" stroke-width="1.44" stroke-linecap="round" stroke-linejoin="bevel" d="M0 2.32C2.29.2 5.6 0 6.89 0"/>
  <path transform="matrix(.56056 0 0 .53466 -14.45 2.23)" fill="none" stroke-width="1.44" stroke-linecap="round" stroke-linejoin="bevel" d="M0 0c1.98 2.43 2.66 3.08 3.8 5.35"/>
  <path transform="matrix(.41006 0 0 .47512 -21.58 1.93)" fill="none" stroke-width="1.44" stroke-linecap="round" stroke-linejoin="bevel" d="M0 .1C3.22.09 9.47.06 11.9 0"/>
  <path transform="matrix(.41006 0 0 .47512 -17.18 .68)" fill="none" stroke-width="1.44" stroke-linecap="round" stroke-linejoin="bevel" d="M1.41 2.6C1.36 2.34.15 0 0 0"/>
  <path transform="matrix(.41006 0 0 .47512 -20.96 .59)" fill="none" stroke-width="1.44" stroke-linecap="round" stroke-linejoin="bevel" d="M8.61.27C5.73-.05 2.46-.13 0 .27"/>
  <path transform="matrix(.41006 0 0 .47512 -21.76 .8)" fill="none" stroke-width="1.44" stroke-linecap="round" stroke-linejoin="bevel" d="M1.65 0C1.07.63.67 1.1 0 2.12"/>
  <path transform="matrix(.41006 0 0 .47512 -21.02 2.18)" fill="none" stroke-width="1.44" stroke-linecap="round" stroke-linejoin="bevel" d="M.01 0C-.1.39.78 7.54 1.14 9.69"/>
  <path transform="matrix(.41006 0 0 .47512 -17.56 2.34)" fill="none" stroke-width="1.44" stroke-linecap="round" stroke-linejoin="bevel" d="M1.06 0C.63 1.86.45 7.42 0 9.3"/>
  <path transform="matrix(.41006 0 0 .47512 -20.45 6.85)" fill="none" stroke-width="1.44" stroke-linecap="round" stroke-linejoin="bevel" d="M0 .1C.99.1 4.98-.03 6.05.02"/>
  <path transform="matrix(.41006 0 0 .47512 -19.74 3.33)" fill="none" stroke-width="1.44" stroke-linecap="round" stroke-linejoin="bevel" d="M0 0c0 .9.47 4.5.47 6.55"/>
  <path transform="matrix(.41006 0 0 .47512 -18.48 3.36)" fill="none" stroke-width="1.44" stroke-linecap="round" stroke-linejoin="bevel" d="M.36 0C.28 1.5.04 5.64 0 6.96"/>
  <path transform="matrix(.50873 0 0 .51308 1.17 4.62)" fill="none" stroke-width="1.67" stroke-linecap="round" stroke-linejoin="bevel" d="M.07 0c-.4 1.77.91 4.13 1.85 4.23"/>
  <path transform="matrix(.50873 0 0 .51308 2.54 .88)" fill="none" stroke-width="1.67" stroke-linecap="round" stroke-linejoin="bevel" d="M0 11.12C4.82 7.42 7.77 2.33 9.07 0"/>
  <path transform="matrix(.51992 0 0 .49953 8.72 -6.46)" fill="none" stroke-width="1.67" stroke-linecap="round" stroke-linejoin="bevel" d="M10.7 0C7.3 2 2.2 7.4 0 10.63"/>
  <path transform="matrix(.51992 0 0 .49953 8.95 -6.77)" fill="none" stroke-width="1.67" stroke-linecap="round" stroke-linejoin="bevel" d="M0 0c1.6 1.43 7.32 9.28 8.51 11.23"/>
</g>
</svg>