<?xml version="1.0" standalone="no"?>
<!DOCTYPE svg PUBLIC "-//W3C//DTD SVG 20010904//EN" "http://www.w3.org/TR/2001/REC-SVG-20010904/DTD/svg10.dtd">
<!-- Created using Krita: https://krita.org -->
<svg xmlns="http://www.w3.org/2000/svg" 
    xmlns:xlink="http://www.w3.org/1999/xlink"
    xmlns:krita="http://krita.org/namespaces/svg/krita"
    xmlns:sodipodi="http://sodipodi.sourceforge.net/DTD/sodipodi-0.dtd"
    width="7.68pt"
    height="7.68pt"
    viewBox="0 0 7.68 7.68">
<defs/>
<path id="shape0" transform="matrix(0.41881341079375 0 0 0.488629505470589 -34.6949364344915 0.827798702306172)" fill="none" stroke="#000000" stroke-width="1.0896" stroke-linecap="round" stroke-linejoin="miter" stroke-miterlimit="1.91999995708466" d="M0.233356 0C-0.149637 0 0.0117109 11.1858 0.201761 12.6112" sodipodi:nodetypes="cc"/><path id="shape1" transform="matrix(0.41881341079375 0 0 0.488629505470589 -37.7960009652023 3.16982230325112)" fill="none" stroke="#000000" stroke-width="1.0896" stroke-linecap="round" stroke-linejoin="miter" stroke-miterlimit="1.91999995708466" d="M0.961733 1.24106C-3.84202 1.24106 10.6739 1.22252 15.3195 0" sodipodi:nodetypes="cc"/><path id="shape2" transform="matrix(0.392043784281695 0.0261372471883674 -0.0274411234306011 0.360129630813226 -28.7055372901881 0.48)" fill="none" stroke="#000000" stroke-width="1.0896" stroke-linecap="round" stroke-linejoin="miter" stroke-miterlimit="1.91999995708466" d="M9.60816 0C5.70126 4.73407 3.81328 8.25584 0 12.3717" sodipodi:nodetypes="cc"/><path id="shape3" transform="matrix(0.432149554816034 0.0288110670017757 -0.0302265757261953 0.396685127872124 -27.4675808348284 1.45788971794321)" fill="none" stroke="#000000" stroke-width="1.0896" stroke-linecap="round" stroke-linejoin="miter" stroke-miterlimit="1.91999995708466" d="M8.58901 0C5.30872 4.35059 3.49804 6.6958 0 10.9093" sodipodi:nodetypes="cc"/><path id="shape4" transform="matrix(0.452892922424548 0.0301940108168301 -0.0294586113236149 0.38660657779095 -29.9281689657831 5.16347256117791)" fill="none" stroke="#000000" stroke-width="1.0896" stroke-linecap="round" stroke-linejoin="miter" stroke-miterlimit="1.91999995708466" d="M1.53661 0.00794425C1.53661 -0.212076 0.251432 4.20307 0 5.18373" sodipodi:nodetypes="cc"/><path id="shape5" transform="matrix(0.432149554816034 0.0288110670017757 -0.0302265757261953 0.396685127872124 -29.8182760466771 5.85181349876248)" fill="none" stroke="#000000" stroke-width="1.0896" stroke-linecap="round" stroke-linejoin="miter" stroke-miterlimit="1.91999995708466" d="M4.27951 0C3.53465 1.61384 1.1761 2.33309 0 3.50919" sodipodi:nodetypes="cc"/><path id="shape6" transform="matrix(0.392043784281695 0.0261372471883674 -0.0274411234306011 0.360129630813226 -29.1683976831381 5.40052226088731)" fill="none" stroke="#000000" stroke-width="1.0896" stroke-linecap="round" stroke-linejoin="miter" stroke-miterlimit="1.91999995708466" d="M0 0C0.123505 0.0617527 4.13614 3.27327 2.36441 2.0356" sodipodi:nodetypes="cc"/><path id="shape7" transform="matrix(0.452892922424548 0.0301940108168301 -0.0294586113236149 0.38660657779095 -29.6997071960505 6.21709585199592)" fill="none" stroke="#000000" stroke-width="1.0896" stroke-linecap="round" stroke-linejoin="miter" stroke-miterlimit="1.91999995708466" d="M1.32687 1.15911C-0.682029 -0.793289 2.27806 2.3466 0 0" sodipodi:nodetypes="cc"/><path id="shape8" transform="matrix(0.392043784281695 0.0261372471883674 -0.0274411234306011 0.360129630813226 -24.7425817399201 0.631255701790404)" fill="none" stroke="#000000" stroke-width="1.0896" stroke-linecap="round" stroke-linejoin="miter" stroke-miterlimit="1.91999995708466" d="M0 0C1.47421 1.06904 1.82265 1.10862 3.04196 2.04954" sodipodi:nodetypes="cc"/><path id="shape9" transform="matrix(0.392043784281695 0.0261372471883674 -0.0274411234306011 0.360129630813226 -25.2706143419655 1.23497821656711)" fill="none" stroke="#000000" stroke-width="1.0896" stroke-linecap="round" stroke-linejoin="miter" stroke-miterlimit="1.91999995708466" d="M0.145734 0.0446941C-0.619089 -0.337717 1.83493 1.85486 2.67342 2.02255" sodipodi:nodetypes="cc"/><path id="shape10" transform="matrix(0.639044492479149 0 0 0.647025246275272 -21.3795885638121 0.731020964796104)" fill="none" stroke="#000000" stroke-width="0.96" stroke-linecap="round" stroke-linejoin="miter" stroke-miterlimit="1.91999995708466" d="M0 8.30965C0.345016 9.53635 5.16189 10.4853 7.02933 7.44565C11.1677 0.44296 0.32 -3.03527 0.32 3.38165" sodipodi:nodetypes="ccc"/><path id="shape11" transform="matrix(0.639044492479149 0 0 0.647025246275272 -22.1566666666668 1.44208756008901)" fill="none" stroke="#000000" stroke-width="0.96" stroke-linecap="round" stroke-linejoin="miter" stroke-miterlimit="1.91999995708466" d="M0 0C0.300557 1.60378 0.864521 4.37081 1.49333 3.30667" sodipodi:nodetypes="cc"/><path id="shape12" transform="matrix(0.639044492479149 0 0 0.647025246275272 -21.0932966311814 2.49113115938332)" fill="none" stroke="#000000" stroke-width="0.96" stroke-linecap="round" stroke-linejoin="miter" stroke-miterlimit="1.91999995708466" d="M2.48533 0C1.64339 0.565333 0.609793 1.42452 0 1.97333" sodipodi:nodetypes="cc"/><path id="shape13" transform="matrix(0.813499984972115 0 0 0.989556555269978 -14.3350812761741 3.77631029541891)" fill="none" stroke="#000000" stroke-width="0.72" stroke-linecap="round" stroke-linejoin="miter" stroke-miterlimit="1.91999995708466" d="M0 0.354973C3.05672 0.235934 2.84001 0.289093 7.07447 0" sodipodi:nodetypes="cc"/><path id="shape14" transform="matrix(0.813499984972115 0 0 0.989556555269978 -14.5670000000004 0.770999999999684)" fill="none" stroke="#000000" stroke-width="0.72" stroke-linecap="round" stroke-linejoin="miter" stroke-miterlimit="1.91999995708466" d="M0 3.456C1.58452 1.44954 2.26284 1.04 3.728 0" sodipodi:nodetypes="cc"/><path id="shape15" transform="matrix(0.813499984972115 0 0 0.989556555269978 -14.4303320025251 4.23048971722352)" fill="none" stroke="#000000" stroke-width="0.72" stroke-linecap="round" stroke-linejoin="miter" stroke-miterlimit="1.91999995708466" d="M0 0C1.25567 1.00763 1.62514 1.56472 3.744 2.728" sodipodi:nodetypes="cc"/><path id="shape16" transform="matrix(1.14403886554623 0 0 1.10776277724201 -4.12619187675077 0.833333333333574)" fill="none" stroke="#000000" stroke-width="0.6096" stroke-linecap="round" stroke-linejoin="miter" stroke-miterlimit="1.91999995708466" d="M0 0C0.772867 0.853333 1.81941 1.74407 2.74133 2.70933" sodipodi:nodetypes="cc"/><path id="shape17" transform="matrix(1.14403886554623 0 0 1.10776277724201 -4.39465966386559 3.74601092896185)" fill="none" stroke="#000000" stroke-width="0.6096" stroke-linecap="round" stroke-linejoin="miter" stroke-miterlimit="1.91999995708466" d="M2.93867 0C1.75479 1.13416 1.10539 2.17183 0 2.90133" sodipodi:nodetypes="cc"/><path id="shape18" transform="matrix(1.14403886554623 0 0 1.10776277724201 -6.79866666666673 3.72800778735614)" fill="none" stroke="#000000" stroke-width="0.6096" stroke-linecap="round" stroke-linejoin="miter" stroke-miterlimit="1.91999995708466" d="M4.8 0.0215852C2.44285 -0.0832705 2.07629 0.233293 0 0.133585" sodipodi:nodetypes="cc"/><path id="shape19" transform="matrix(1.23252467105275 0 0 1.29256644518279 1.4657730263153 0.674999999999678)" fill="none" stroke="#000000" stroke-width="0.6096" stroke-linecap="round" stroke-linejoin="miter" stroke-miterlimit="1.91999995708466" d="M0 4.816C1.02086 3.56119 3.35744 0.975678 4.32 0" sodipodi:nodetypes="cc"/><path id="shape20" transform="matrix(1.23252467105275 0 0 1.29256644518279 0.814999999999486 0.85078903654455)" fill="none" stroke="#000000" stroke-width="0.6096" stroke-linecap="round" stroke-linejoin="miter" stroke-miterlimit="1.91999995708466" d="M4.864 4.424C3.87422 3.17375 1.94355 0.895909 0 0" sodipodi:nodetypes="cc"/><path id="shape21" transform="matrix(1.23252467105275 0 0 1.29256644518279 6.78041940789473 0.674999999999778)" fill="none" stroke="#000000" stroke-width="0.6096" stroke-linecap="round" stroke-linejoin="miter" stroke-miterlimit="1.91999995708466" d="M0 0" sodipodi:nodetypes="c"/><path id="shape22" transform="matrix(1.29034276461017 0 0 1.17224703626684 8.75840543744258 2.53112296976438)" fill="none" stroke="#000000" stroke-width="0.6096" stroke-linecap="round" stroke-linejoin="miter" stroke-miterlimit="1.91999995708466" d="M0 0C2.81941 0.451136 3.79975 1.20266 4.41867 3.70133" sodipodi:nodetypes="cc"/><path id="shape23" transform="matrix(1.37231169919822 0.269558063789789 -0.290567031551028 1.22088534080903 9.1090160140194 0.239062324143259)" fill="none" stroke="#000000" stroke-width="0.6096" stroke-linecap="round" stroke-linejoin="miter" stroke-miterlimit="1.91999995708466" d="M0 1.58435C1.23582 0.628767 0.597719 0.746983 2.31096 0" sodipodi:nodetypes="cc"/><path id="shape24" transform="matrix(1.37231169919822 0.269558063789789 -0.290567031551028 1.22088534080903 8.53192539895333 2.69349008190861)" fill="none" stroke="#000000" stroke-width="0.6096" stroke-linecap="round" stroke-linejoin="miter" stroke-miterlimit="1.91999995708466" d="M0 0C0.681322 1.01918 0.856937 0.692813 1.96337 1.7438" sodipodi:nodetypes="cc"/><path id="shape25" transform="matrix(0.754783779290918 0 0 0.893604953879548 17.2513022707572 3.45566393931636)" fill="none" stroke="#000000" stroke-width="0.6096" stroke-linecap="round" stroke-linejoin="miter" stroke-miterlimit="1.91999995708466" d="M0 2.264C3.22886 2.16727 9.53767 2.8267 6.288 0" sodipodi:nodetypes="cc"/><path id="shape26" transform="matrix(0.754783779290918 0 0 0.893604953879548 17.2049485636945 1.01999821456815)" fill="none" stroke="#000000" stroke-width="0.6096" stroke-linecap="round" stroke-linejoin="miter" stroke-miterlimit="1.91999995708466" d="M0.0614133 2.14166C-0.419073 1.11255 2.02481 -1.41373 3.73341 1.03766" sodipodi:nodetypes="cc"/><path id="shape27" transform="matrix(0.754783779290918 0 0 0.893604953879548 20.2402460367492 1.81895429885178)" fill="none" stroke="#000000" stroke-width="0.6096" stroke-linecap="round" stroke-linejoin="miter" stroke-miterlimit="1.91999995708466" d="M0 0.215581C1.36805 -0.544905 2.42638 0.897256 2.208 1.59158" sodipodi:nodetypes="cc"/><path id="shape28" transform="matrix(0.754783779290918 0 0 0.893604953879548 15.8424938692288 2.9460074903861)" fill="none" stroke="#000000" stroke-width="0.6096" stroke-linecap="round" stroke-linejoin="miter" stroke-miterlimit="1.91999995708466" d="M1.56251 0.0103376C-0.333804 -0.207617 -0.774172 3.0961 1.77051 2.82634" sodipodi:nodetypes="cc"/><path id="shape29" transform="matrix(0.754783779290918 0 0 0.893604953879548 16.9856183804467 1.11084454033642)" fill="none" stroke="#000000" stroke-width="0.6096" stroke-linecap="round" stroke-linejoin="miter" stroke-miterlimit="1.91999995708466" d="M7.368 0C5.38333 1.52865 1.63416 4.55703 0 6.512" sodipodi:nodetypes="cc"/>
</svg>
